# xmcd
#
# Track frame offsets: 
#        150
#        13465
#        25948
#        38333
#        49680
#        63545
#        76578
#        88895
#        101720
#        123965
#        141930
#        156480
#        168645
#        181900
#        194443
#        206253
#        221135
#        234168
#        255353
#        265680
#        277700
#        296338
#        319305
#
# Disc length: 4423 seconds
#
# Revision: 0
# Processed by: cddbd v1.4PL0 Copyright (c) Steve Scherf et al.
# Submitted via: ExactAudioCopy v0.95a3
#
DISCID=41114517
DTITLE=Muddy Waters - Chess Box - Disc 3 (1960 to 1972)
DYEAR=1989
DGENRE=
TTITLE0=I Feel So Good (Live)
TTITLE1=You Shook Me
TTITLE2=You Need Love
TTITLE3=Twenty Four Hours (PU)
TTITLE4=Elevate Me Mama (Alt - PU)
TTITLE5=So Glad I'm Living (PU)
TTITLE6=My Love Strikes Like Lightning (PU)
TTITLE7=You Don't Have To Go (Alt - PU)
TTITLE8=One More Time With Feeling (PU)
TTITLE9=My Home Is In The Delta
TTITLE10=Good Morning Little Schoolgirl
TTITLE11=The Same Thing
TTITLE12=You Can't Lose What You Ain't Never Had
TTITLE13=Short Dress Woman (PU)
TTITLE14=Making Friends
TTITLE15=Black Night (Alt)
TTITLE16=Bird Nest On The Ground
TTITLE17=Country Boy (Live - PU)
TTITLE18=Sugar Sweet (Alt)
TTITLE19=All Aboard (Alt)
TTITLE20=Going Down Slow (Live)
TTITLE21=Who's Gonna Be Your Sweet Man When I'm Gone
TTITLE22=Can't Get No Grindin' (What's The Matter With The Meal)
EXTD=PU =Previously Unreleased\n\n
EXTT0=
EXTT1=
EXTT2=
EXTT3=
EXTT4=
EXTT5=
EXTT6=
EXTT7=
EXTT8=
EXTT9=
EXTT10=
EXTT11=
EXTT12=
EXTT13=
EXTT14=
EXTT15=
EXTT16=
EXTT17=
EXTT18=
EXTT19=
EXTT20=
EXTT21=
EXTT22=
PLAYORDER=
